<?xml version="1.0" encoding="UTF-8" standalone="no" ?>
<!DOCTYPE svg PUBLIC "-//W3C//DTD SVG 1.1//EN" "http://www.w3.org/Graphics/SVG/1.1/DTD/svg11.dtd">
<svg xmlns="http://www.w3.org/2000/svg" xmlns:xlink="http://www.w3.org/1999/xlink" version="1.1" width="1280" height="1024" viewBox="0 0 1280 1024" xml:space="preserve">
<desc>Created with Fabric.js 5.3.0</desc>
<defs>
</defs>
<g transform="matrix(1 0 0 1 640 512)" id="background-logo"  >
<rect style="stroke: none; stroke-width: 0; stroke-dasharray: none; stroke-linecap: butt; stroke-dashoffset: 0; stroke-linejoin: miter; stroke-miterlimit: 4; fill: rgb(255,255,255); fill-rule: nonzero; opacity: 1;"  paint-order="stroke"  x="-640" y="-512" rx="0" ry="0" width="1280" height="1024" />
</g>
<g transform="matrix(1.503129605001908 0 0 1.5031296050019083 261.004375 512)" id="logo-logo"  >
<g style=""  paint-order="stroke"   >
		<g transform="matrix(0.996372018130248 0 0 0.996372018130248 0 -2.842171e-14)"  >
<g style=""  paint-order="stroke"   >
		<g transform="matrix(1 0 0 1 0 0)"  >
<path style="stroke: none; stroke-width: 1; stroke-dasharray: none; stroke-linecap: butt; stroke-dashoffset: 0; stroke-linejoin: miter; stroke-miterlimit: 4; fill: rgb(128,198,244); fill-rule: nonzero; opacity: 1;"  paint-order="stroke"  transform=" translate(-100, -100)" d="M 100 0 C 44.771525016920656 0 0 44.771525016920656 0 100 C 0 155.22847498307934 44.771525016920656 200 100 200 C 155.22847498307934 200 200 155.22847498307934 200 100 C 200 44.771525016920656 155.22847498307934 0 100 0 Z M 100 196 C 46.98066401624383 196 4 153.01933598375618 4 100 C 4 46.98066401624382 46.98066401624383 4 100 4 C 153.01933598375618 4 196 46.98066401624379 196 99.99999999999997 C 196.01326533773167 125.46944498981716 185.90486509450383 149.9002677451139 167.89993478073086 167.91457562675862 C 149.8950044669579 185.92888350840335 125.4694484443322 196.05000345451532 100 196.05000000000004 Z M 100 7 C 62.35892948159733 7.016187092396458 28.43436755309712 29.706280160901727 14.046574617508824 64.48906133544207 C -0.3412183180794699 99.27184250998243 7.641473954877824 139.29674537773892 34.27203091319039 165.8986980858277 C 60.90258787150296 192.5006507939165 100.93604655094379 200.44032406550502 135.70334521162354 186.01515870657698 C 170.47064387230333 171.58999334764894 193.12426542597862 137.64106617754638 193.10000000000002 100 C 193.08674273774355 75.32160452628673 183.27057218910613 51.65923870237178 165.81093458285625 34.21835473479668 C 148.35129697660633 16.777470767221573 124.67839546988432 6.986735612098698 99.99999999999999 7.000000000000014 Z M 180.74 117.16 C 181.47 112.28999999999999 183.67000000000002 105.72999999999999 188.31 104.66 C 189.07 112.13 185 116.73 180.78 117.15 Z M 172.65 117.86 C 175.78 118.97 179.14000000000001 124.07 175.65 131.43 C 173.38 129.47 170.63 124.76 172.69 117.85 Z M 168.12 143.86 C 165.84 140.10000000000002 165.63 134.66000000000003 169.27 128.98000000000002 C 172.76 131.31 174.06 137.8 168.16 143.86 Z M 174.58 104.86000000000001 C 177.97 105.55000000000001 181.38000000000002 110.26000000000002 179.52 117.24000000000001 C 176.21 115.47 173.65 111.17 174.62 104.88 Z M 175.13000000000002 93.71000000000001 C 177.41000000000003 93.91000000000001 181.57000000000002 96.71000000000001 180.93000000000004 104.08000000000001 C 178.1 103.12 175 99.79 175.17 93.73 Z M 186.44 92 C 188.56 99 184.91 103.08 182.27 104 C 181.87 99.53 182.53 93.66 186.44 92 Z M 176.44 78.25 C 179.31 79.75 183.82 86.09 180.60999999999999 93.87 C 177.34 91.78 174.69 86 176.44 78.2 Z M 100 20.71 C 134.36689360095878 20.713691647234253 164.82829889334786 42.832215696829074 175.46999999999997 75.50999999999993 L 175.2 75.61999999999999 C 174.88818317975418 75.766947098301 174.60402436848614 75.9665348347869 174.35999999999999 76.21 C 163.99405930433431 44.121969994561695 134.2041666870895 22.31047752033527 100.48387687075302 22.119556494144092 C 66.76358705441655 21.928635467952915 36.72862312142985 43.40140537880515 26 75.37 C 25.61606697364098 75.3974516185268 25.24176939123848 75.50293548265842 24.9 75.68 L 24.49 75.91000000000001 C 34.990285345129905 43.05611729611335 65.50895335219818 20.746085856699104 99.99999999999997 20.709999999999994 Z M 156.38 156 C 155.38 152.3 156.43 146.29 162.25 141.59 C 165 145 163.86 151.82 156.38 156 Z M 142.06 164.58 Z M 60.55 164.58 Z M 46.23 156 C 38.75 151.8 37.62 144.94 40.36 141.59 C 46.18 146.31 47.24 152.32 46.23 156 Z M 28 104.88 C 29 111.17 26.41 115.47 23.06 117.25999999999999 C 21.18 110.28 24.6 105.57 28 104.88 Z M 21.65 104.1 C 21.009999999999998 96.77 25.159999999999997 93.92999999999999 27.45 93.72999999999999 C 27.65 99.79 24.51 103.12 21.64 104.1 Z M 29.93 117.85 C 31.99 124.75999999999999 29.24 129.47 26.93 131.42 C 23.43 124.06 26.79 119 29.92 117.85 Z M 33.3 129 C 36.94 134.68 36.73 140.12 34.449999999999996 143.88 C 28.55 137.8 29.85 131.31 33.3 129 Z M 26.17 78.2 C 27.92 86 25.27 91.78 22 93.82 C 18.79 86 23.3 79.7 26.17 78.2 Z M 16.17 92 C 20.080000000000002 93.71 20.740000000000002 99.58 20.340000000000003 104 C 17.7 103 14.05 99 16.17 92 Z M 14.260000000000002 104.7 C 18.900000000000002 105.77 21.1 112.33 21.830000000000002 117.2 C 17.64 116.73 13.54 112.13 14.26 104.65 Z M 25.720000000000002 131.98000000000002 C 25.274467592608023 131.9900729786286 24.829017111162262 131.95658046122668 24.39 131.88000000000002 C 19.23 131.05 16.14 125.88000000000002 16.12 119.81000000000003 C 21.11 120.43 24.19 127.12 25.72 131.93 Z M 19.470000000000002 134.57000000000002 C 24.880000000000003 133.92000000000002 30.470000000000002 140.15000000000003 33.67 144.51000000000002 C 28.79 146.51 21.63 142.83 19.47 134.52 Z M 29.230000000000004 149.95000000000002 C 34.59 148.25000000000003 41.31 153.39000000000001 45.34 157.25000000000003 C 41.07 159.92 33.39 158.18 29.23 149.9 Z M 56 167.56 C 50.7 170.76 44.47 168.56 39.82 163.63 C 44.51 160.45 52.26 163.63 57.22 166.63 C 56.8477617408528 166.9827370464114 56.43875471053201 167.29452109411494 56 167.56 Z M 57.76 164.45 C 57.73913762709167 164.95446819021024 57.67557703557941 165.4562623337281 57.57 165.95 C 49.03 161.26999999999998 48.94 154.41 50.79 151.48999999999998 C 55.19 154.75 58 158.94 57.71 164.45 Z M 100 179.38 C 85.7401547348011 179.40026851579225 71.74110901580313 175.55752873807668 59.49000000000001 168.26 C 59.6421884625951 168.03895372932777 59.76018113890248 167.79622593806687 59.84 167.54 C 59.92631608207358 167.40897489327722 60.00317772636634 167.27196065779881 60.07 167.13 C 85.4756773481421 182.2418900361712 117.23515917834905 181.71940282594966 142.13000000000002 165.77999999999997 C 142.16366868220902 166.0626718488874 142.21375329061578 166.34314565596534 142.28 166.62 C 142.32279982261164 166.77679675933342 142.3762575212137 166.9304876428143 142.44 167.08 C 129.75310930899343 175.137433508392 115.02926543406221 179.40471154000494 100 179.38 Z M 144.86 164.45 C 144.56 158.94 147.38000000000002 154.75 151.86 151.45 C 153.71 154.36999999999998 153.62 161.23 145.08 165.91 C 144.97999401697933 165.42910449480385 144.91979025784386 164.94078511514945 144.9 164.45 Z M 146.61 167.56 C 146.17717615339652 167.30566894404 145.7717027981758 167.00742821168757 145.4 166.67000000000002 C 150.4 163.67000000000002 158.11 160.45000000000002 162.8 163.67000000000002 C 158.19 168.56 152 170.76 146.65 167.56 Z M 157.23000000000002 157.2 C 161.23000000000002 153.33999999999997 167.98000000000002 148.2 173.34000000000003 149.89999999999998 C 169.22 158.18 161.54 159.92 157.27 157.2 Z M 168.9 144.45999999999998 C 172.12 140.09999999999997 177.69 133.86999999999998 183.1 134.51999999999998 C 181 142.83 173.82 146.51 168.94 144.46 Z M 178.18 131.82999999999998 C 177.74098288883775 131.90658046122664 177.295532407392 131.94007297862856 176.85 131.92999999999998 C 178.38 127.11999999999998 181.46 120.42999999999998 186.44 119.75999999999998 C 186.47 125.81 183.38 131 178.22 131.83 Z" stroke-linecap="round" />
</g>
</g>
</g>
		<g transform="matrix(0.1372984806174535 0 0 0.1372984806174535 1.3094008516989106 -52.45214266179448)"  >
<g style=""  paint-order="stroke"   >
		<g transform="matrix(1 0 0 1 0 0)"  >
<polygon style="stroke: none; stroke-width: 1; stroke-dasharray: none; stroke-linecap: butt; stroke-dashoffset: 0; stroke-linejoin: miter; stroke-miterlimit: 4; fill: rgb(44,160,237); fill-rule: nonzero; opacity: 1;"  paint-order="stroke"  points="100,-22.430000000000007 30.900000000000006,-32.46 0,-95 -30.900000000000006,-32.46 -100,-22.430000000000007 -50,26.260000000000005 -61.8,95 0,62.55000000000001 61.80000000000001,95 50,26.260000000000005 100,-22.430000000000007 " />
</g>
</g>
</g>
		<g transform="matrix(0.1372984806174535 0 0 0.1372984806174535 -1.4603550106136822 -52.45214266179448)"  >
<g style=""  paint-order="stroke"   >
		<g transform="matrix(1 0 0 1 0 0)"  >
<polygon style="stroke: none; stroke-width: 1; stroke-dasharray: none; stroke-linecap: butt; stroke-dashoffset: 0; stroke-linejoin: miter; stroke-miterlimit: 4; fill: rgb(255,255,255); fill-rule: nonzero; opacity: 1;"  paint-order="stroke"  points="100,-22.430000000000007 30.900000000000006,-32.46 0,-95 -30.900000000000006,-32.46 -100,-22.430000000000007 -50,26.260000000000005 -61.8,95 0,62.55000000000001 61.80000000000001,95 50,26.260000000000005 100,-22.430000000000007 " />
</g>
</g>
</g>
</g>
</g>
<g transform="matrix(1.9211538461538462 0 0 1.9211538461538462 819.2801557692308 503.28324978959483)" id="text-logo"  >
<g style=""  paint-order="stroke"   >
		<g transform="matrix(1 0 0 1 0 0)" id="text-logo-path-0"  >
<path style="stroke: rgb(255,255,255); stroke-width: 0; stroke-dasharray: none; stroke-linecap: butt; stroke-dashoffset: 0; stroke-linejoin: miter; stroke-miterlimit: 4; fill: rgb(128,198,244); fill-rule: nonzero; opacity: 1;"  paint-order="stroke"  transform=" translate(-181.335, 12.805)" d="M 42.78 6.9 L 42.83 -38.23 C 42.83 -39.88 43.96 -40.59 44.96 -40.59 C 45.08 -40.59 45.25 -40.65 45.25 -40.89 C 45.25 -41.12 45.08 -41.18 44.96 -41.18 L 34.57 -41.18 L 23.19 -11.62 L 12.21 -41.18 L 1.3 -41.18 C 1.18 -41.18 1 -41.12 1 -40.89 C 1 -40.65 1.18 -40.59 1.3 -40.59 L 1.3 -40.59 C 2.3 -40.59 3.42 -39.88 3.42 -38.23 L 3.42 -2.95 C 3.42 -1.3 2.3 -0.59 1.3 -0.59 C 1.18 -0.59 1 -0.53 1 -0.3 C 1 -0.06 1.18 0 1.3 0 L 7.91 0 C 8.02 0 8.2 -0.06 8.2 -0.3 C 8.2 -0.53 8.02 -0.59 7.91 -0.59 C 6.9 -0.59 5.78 -1.3 5.78 -2.95 L 5.78 -34.81 L 18.7 0 L 21.65 0 L 34.57 -33.51 L 34.57 1.77 C 34.57 12.63 41.36 15.69 47.2 15.69 C 54.63 15.69 58.41 11.8 58.41 6.84 C 58.41 3.72 56.29 1.59 53.57 1.59 C 50.86 1.59 48.68 3.72 48.68 6.43 C 48.68 7.67 49.09 8.67 49.86 9.79 C 50.74 11.15 50.86 13.33 47.79 13.33 C 45.78 13.33 42.78 11.62 42.78 6.9 Z M 83.13 0 L 85.31 0 C 85.43 0 85.61 -0.06 85.61 -0.3 C 85.61 -0.53 85.43 -0.59 85.31 -0.59 C 84.31 -0.59 82.78 -1.24 82.25 -2.77 L 69.03 -41.3 L 64.19 -41.3 L 62.78 -34.87 L 73.99 -2.77 C 74.52 -1.24 73.81 -0.59 72.81 -0.59 C 72.69 -0.59 72.51 -0.53 72.51 -0.3 C 72.51 -0.06 72.69 0 72.81 0 L 74.99 0 Z M 55.17 -11.21 L 74.75 -11.21 L 74.75 -13.57 L 55.17 -13.57 Z M 46.85 0 L 49.03 0 L 51.86 0 L 56.17 0 C 56.29 0 56.46 -0.06 56.46 -0.3 C 56.46 -0.53 56.29 -0.59 56.17 -0.59 C 54.81 -0.59 53.16 -3.66 53.81 -5.61 L 66.08 -41.3 L 63.13 -41.3 L 51.15 -6.31 C 50.21 -3.48 47.85 -0.59 46.85 -0.59 C 46.73 -0.59 46.55 -0.53 46.55 -0.3 C 46.55 -0.06 46.73 0 46.85 0 Z M 95.93 -15.99 L 102.01 -15.99 C 113.52 -15.99 119.53 -19.77 119.53 -28.67 C 119.53 -37.17 113.87 -41.3 102.01 -41.3 L 95.93 -41.3 L 95.93 -38.94 L 102.01 -38.94 C 107.5 -38.94 110.68 -35.87 110.68 -28.67 C 110.68 -21.71 107.73 -18.35 102.01 -18.35 L 95.93 -18.35 Z M 97.94 0 L 100.12 0 C 100.24 0 100.42 -0.06 100.42 -0.3 C 100.42 -0.53 100.24 -0.59 100.12 -0.59 C 99.12 -0.59 98 -1.3 98 -2.95 L 98 -41.3 L 89.8 -41.3 L 87.62 -41.3 C 87.5 -41.3 87.32 -41.24 87.32 -41.01 C 87.32 -40.77 87.5 -40.71 87.62 -40.71 C 88.62 -40.71 89.74 -40 89.74 -38.35 L 89.74 -2.95 C 89.74 -1.3 88.62 -0.59 87.62 -0.59 C 87.5 -0.59 87.32 -0.53 87.32 -0.3 C 87.32 -0.06 87.5 0 87.62 0 L 89.8 0 Z M 120.36 0 L 122.54 0 C 122.66 0 122.84 -0.06 122.84 -0.3 C 122.84 -0.53 122.66 -0.59 122.54 -0.59 C 121.54 -0.59 119.83 -1.18 119.12 -2.66 L 111.51 -17.76 L 103.25 -17.76 L 110.86 -2.66 C 111.57 -1.18 111.04 -0.59 110.04 -0.59 C 109.92 -0.59 109.74 -0.53 109.74 -0.3 C 109.74 -0.06 109.92 0 110.04 0 L 112.22 0 Z M 136.11 0 L 138.3 0 C 138.41 0 138.59 -0.06 138.59 -0.3 C 138.59 -0.53 138.41 -0.59 138.3 -0.59 C 137.29 -0.59 136.17 -1.3 136.17 -2.95 L 136.17 -38.35 C 136.17 -40 137.29 -40.71 138.3 -40.71 C 138.41 -40.71 138.59 -40.77 138.59 -41.01 C 138.59 -41.24 138.41 -41.3 138.3 -41.3 L 136.11 -41.3 L 127.97 -41.3 L 125.79 -41.3 C 125.67 -41.3 125.49 -41.24 125.49 -41.01 C 125.49 -40.77 125.67 -40.71 125.79 -40.71 C 126.79 -40.71 127.91 -40 127.91 -38.35 L 127.91 -2.95 C 127.91 -1.3 126.79 -0.59 125.79 -0.59 C 125.67 -0.59 125.49 -0.53 125.49 -0.3 C 125.49 -0.06 125.67 0 125.79 0 L 127.97 0 Z M 160.48 0 L 162.66 0 C 162.78 0 162.96 -0.06 162.96 -0.3 C 162.96 -0.53 162.78 -0.59 162.66 -0.59 C 161.66 -0.59 160.54 -1.3 160.54 -2.95 L 160.54 -41.3 L 152.28 -41.3 L 152.28 -2.95 C 152.28 -1.3 151.16 -0.59 150.16 -0.59 C 150.04 -0.59 149.86 -0.53 149.86 -0.3 C 149.86 -0.06 150.04 0 150.16 0 L 152.34 0 Z M 144.2 -38.94 L 154.34 -38.94 L 154.34 -41.3 L 141.25 -41.3 L 141.25 -39 L 141.25 -36.82 C 141.25 -36.7 141.31 -36.52 141.54 -36.52 C 141.78 -36.52 141.84 -36.7 141.84 -36.82 C 141.84 -37.82 142.54 -38.94 144.2 -38.94 Z M 158.47 -38.94 L 168.62 -38.94 C 170.27 -38.94 170.98 -37.82 170.98 -36.82 C 170.98 -36.7 171.04 -36.52 171.28 -36.52 C 171.51 -36.52 171.57 -36.7 171.57 -36.82 L 171.57 -39 L 171.57 -41.3 L 158.47 -41.3 Z M 209.57 0 L 211.75 0 C 211.87 0 212.05 -0.06 212.05 -0.3 C 212.05 -0.53 211.87 -0.59 211.75 -0.59 C 210.75 -0.59 209.21 -1.24 208.68 -2.77 L 195.47 -41.3 L 190.63 -41.3 L 189.21 -34.87 L 200.42 -2.77 C 200.95 -1.24 200.25 -0.59 199.24 -0.59 C 199.13 -0.59 198.95 -0.53 198.95 -0.3 C 198.95 -0.06 199.13 0 199.24 0 L 201.43 0 Z M 181.6 -11.21 L 201.19 -11.21 L 201.19 -13.57 L 181.6 -13.57 Z M 173.28 0 L 175.47 0 L 178.3 0 L 182.6 0 C 182.72 0 182.9 -0.06 182.9 -0.3 C 182.9 -0.53 182.72 -0.59 182.6 -0.59 C 181.25 -0.59 179.6 -3.66 180.25 -5.61 L 192.52 -41.3 L 189.57 -41.3 L 177.59 -6.31 C 176.65 -3.48 174.29 -0.59 173.28 -0.59 C 173.16 -0.59 172.99 -0.53 172.99 -0.3 C 172.99 -0.06 173.16 0 173.28 0 Z M 224.44 0 L 224.44 -38.35 C 224.44 -40 225.56 -40.71 226.56 -40.71 C 226.68 -40.71 226.86 -40.77 226.86 -41.01 C 226.86 -41.24 226.68 -41.3 226.56 -41.3 L 224.38 -41.3 L 216.24 -41.3 L 214.05 -41.3 C 213.93 -41.3 213.76 -41.24 213.76 -41.01 C 213.76 -40.77 213.93 -40.71 214.05 -40.71 C 215.06 -40.71 216.18 -40 216.18 -38.35 L 216.18 -2.95 C 216.18 -1.3 215.06 -0.59 214.05 -0.59 C 213.93 -0.59 213.76 -0.53 213.76 -0.3 C 213.76 -0.06 213.93 0 214.05 0 L 216.24 0 Z M 222.37 0 L 241.96 0 L 241.96 -2.3 L 241.96 -4.48 C 241.96 -4.6 241.9 -4.78 241.66 -4.78 C 241.43 -4.78 241.37 -4.6 241.37 -4.48 C 241.37 -3.48 240.66 -2.36 239.01 -2.36 L 222.37 -2.36 Z M 289.69 0 L 291.87 0 C 291.99 0 292.17 -0.06 292.17 -0.3 C 292.17 -0.53 291.99 -0.59 291.87 -0.59 C 290.87 -0.59 289.75 -1.3 289.75 -2.95 L 289.75 -38.35 C 289.75 -40 290.87 -40.71 291.87 -40.71 C 291.99 -40.71 292.17 -40.77 292.17 -41.01 C 292.17 -41.24 291.99 -41.3 291.87 -41.3 L 289.69 -41.3 L 281.55 -41.3 L 279.37 -41.3 C 279.25 -41.3 279.07 -41.24 279.07 -41.01 C 279.07 -40.77 279.25 -40.71 279.37 -40.71 C 280.37 -40.71 281.49 -40 281.49 -38.35 L 281.49 -2.95 C 281.49 -1.3 280.37 -0.59 279.37 -0.59 C 279.25 -0.59 279.07 -0.53 279.07 -0.3 C 279.07 -0.06 279.25 0 279.37 0 L 281.55 0 Z M 266.09 0 L 268.27 0 C 268.39 0 268.57 -0.06 268.57 -0.3 C 268.57 -0.53 268.39 -0.59 268.27 -0.59 C 267.27 -0.59 266.15 -1.3 266.15 -2.95 L 266.15 -38.35 C 266.15 -40 267.27 -40.71 268.27 -40.71 C 268.39 -40.71 268.57 -40.77 268.57 -41.01 C 268.57 -41.24 268.39 -41.3 268.27 -41.3 L 266.09 -41.3 L 257.95 -41.3 L 255.77 -41.3 C 255.65 -41.3 255.47 -41.24 255.47 -41.01 C 255.47 -40.77 255.65 -40.71 255.77 -40.71 C 256.77 -40.71 257.89 -40 257.89 -38.35 L 257.89 -2.95 C 257.89 -1.3 256.77 -0.59 255.77 -0.59 C 255.65 -0.59 255.47 -0.53 255.47 -0.3 C 255.47 -0.06 255.65 0 255.77 0 L 257.95 0 Z M 264.08 -20.06 L 283.67 -20.06 L 283.67 -22.42 L 264.08 -22.42 Z M 311.05 0.59 C 320.55 0.59 324.91 -5.37 324.91 -14.57 L 324.91 -38.35 C 324.91 -40 326.03 -40.71 327.04 -40.71 C 327.16 -40.71 327.33 -40.77 327.33 -41.01 C 327.33 -41.24 327.16 -41.3 327.04 -41.3 L 324.85 -41.3 L 322.61 -41.3 L 320.43 -41.3 C 320.31 -41.3 320.13 -41.24 320.13 -41.01 C 320.13 -40.77 320.31 -40.71 320.43 -40.71 C 321.43 -40.71 322.55 -40 322.55 -38.35 L 322.55 -15.1 C 322.55 -6.08 318.54 -2.95 313.35 -2.95 C 307.51 -2.95 304.85 -6.61 304.85 -14.4 L 304.85 -38.35 C 304.85 -40 305.97 -40.71 306.98 -40.71 C 307.1 -40.71 307.27 -40.77 307.27 -41.01 C 307.27 -41.24 307.1 -41.3 306.98 -41.3 L 304.79 -41.3 L 296.65 -41.3 L 294.47 -41.3 C 294.35 -41.3 294.17 -41.24 294.17 -41.01 C 294.17 -40.77 294.35 -40.71 294.47 -40.71 C 295.47 -40.71 296.59 -40 296.59 -38.35 L 296.59 -13.45 C 296.59 -5.43 301.55 0.59 311.05 0.59 Z M 337.48 0 L 344.15 0 C 355.65 0 361.67 -3.42 361.67 -11.56 C 361.67 -19.29 356.01 -23.07 344.15 -23.07 L 344.15 -20.71 C 349.63 -20.71 352.82 -17.94 352.82 -11.56 C 352.82 -5.37 349.87 -2.36 344.15 -2.36 L 337.48 -2.36 Z M 339.55 0 L 339.55 -41.3 L 331.34 -41.3 L 329.16 -41.3 C 329.04 -41.3 328.87 -41.24 328.87 -41.01 C 328.87 -40.77 329.04 -40.71 329.16 -40.71 C 330.16 -40.71 331.29 -40 331.29 -38.35 L 331.29 -2.95 C 331.29 -1.3 330.16 -0.59 329.16 -0.59 C 329.04 -0.59 328.87 -0.53 328.87 -0.3 C 328.87 -0.06 329.04 0 329.16 0 L 331.34 0 Z M 337.48 -20.71 L 347.63 -20.71 L 347.63 -23.07 L 337.48 -23.07 Z M 341.79 -23.07 L 341.79 -21.24 C 354.12 -21.24 359.31 -23.95 359.31 -31.27 C 359.31 -38.53 354.89 -41.3 341.79 -41.3 L 335.12 -41.3 L 335.12 -38.94 L 341.79 -38.94 C 347.27 -38.94 350.46 -36.58 350.46 -31.03 C 350.46 -25.67 347.51 -23.07 341.79 -23.07 Z" stroke-linecap="round" />
</g>
</g>
</g>
<g transform="matrix(1.9211538461538462 0 0 1.9211538461538462 819.5909066471867 570.7074356312335)" id="tagline-75710e28-465e-4fa2-98a7-33268841d840-logo"  >
<g style=""  paint-order="stroke"   >
		<g transform="matrix(1 0 0 1 0 0)" id="tagline-75710e28-465e-4fa2-98a7-33268841d840-logo-path-0"  >
<path style="stroke: none; stroke-width: 0; stroke-dasharray: none; stroke-linecap: butt; stroke-dashoffset: 0; stroke-linejoin: miter; stroke-miterlimit: 4; fill: rgb(128,198,244); fill-rule: nonzero; opacity: 1;"  paint-order="stroke"  transform=" translate(-126.63000000000001, 7.654999999999999)" d="M 1.94 -13.4 L 1.94 -4.8 C 1.94 -1.78 3.96 0.31 7.92 0.31 C 11.07 0.31 12.94 -1.47 12.94 -4.8 L 12.94 -13.4 C 12.94 -14.83 13.66 -15.09 14.39 -15.4 L 11.04 -15.4 C 11.77 -15.09 12.5 -14.83 12.5 -13.4 L 12.5 -4.8 C 12.5 -1.74 10.8 -0.13 7.92 -0.13 C 5.46 -0.13 4.14 -1.76 4.14 -4.8 L 4.14 -13.4 C 4.14 -14.83 4.86 -15.09 5.59 -15.4 L 0.48 -15.4 C 1.21 -15.09 1.94 -14.83 1.94 -13.4 Z M 35.29 0 L 36.17 0 L 36.17 -13.4 C 36.17 -14.83 36.89 -15.09 37.62 -15.4 L 34.28 -15.4 C 35 -15.09 35.73 -14.83 35.73 -13.4 L 35.73 -3.37 L 27.81 -15.4 L 24.16 -15.4 C 24.88 -15.09 25.61 -14.83 25.61 -13.4 L 25.61 -2 C 25.61 -0.57 24.88 -0.31 24.16 0 L 27.5 0 C 26.77 -0.31 26.05 -0.57 26.05 -2 L 26.05 -14.06 Z M 47.39 0 L 52.49 0 C 51.77 -0.31 51.04 -0.57 51.04 -2 L 51.04 -13.4 C 51.04 -14.83 51.77 -15.09 52.49 -15.4 L 47.39 -15.4 C 48.11 -15.09 48.84 -14.83 48.84 -13.4 L 48.84 -2 C 48.84 -0.57 48.11 -0.31 47.39 0 Z M 65.71 0 L 70.82 0 C 70.09 -0.31 69.37 -0.57 69.37 -2 L 69.37 -14.96 L 71.28 -14.96 C 73.41 -14.96 73.81 -13.88 74.27 -12.78 L 74.27 -15.4 L 62.26 -15.4 L 62.26 -12.78 C 62.72 -13.88 63.12 -14.96 65.27 -14.96 L 67.17 -14.96 L 67.17 -2 C 67.17 -0.57 66.44 -0.31 65.71 0 Z M 86.39 -13.62 L 90.11 -6.23 L 90.11 -2 C 90.11 -0.57 89.39 -0.31 88.66 0 L 93.76 0 C 93.04 -0.31 92.31 -0.57 92.31 -2 L 92.31 -6.05 L 96.12 -13.62 C 96.76 -14.89 97.75 -15.09 98.47 -15.4 L 95.02 -15.4 C 95.74 -15.09 96.21 -14.89 95.57 -13.62 L 92.18 -6.84 L 88.75 -13.73 C 88.18 -14.89 87.34 -15.4 86.04 -15.4 L 84.04 -15.4 C 84.77 -15.09 85.76 -14.89 86.39 -13.62 Z M 121.44 0 L 126.54 0 C 125.82 -0.31 125.09 -0.57 125.09 -2 L 125.09 -13.4 C 125.09 -14.83 125.82 -15.09 126.54 -15.4 L 121.44 -15.4 C 122.17 -15.09 122.89 -14.83 122.89 -13.4 L 122.89 -2 C 122.89 -0.57 122.17 -0.31 121.44 0 Z M 147.44 0 L 148.32 0 L 148.32 -13.4 C 148.32 -14.83 149.05 -15.09 149.78 -15.4 L 146.43 -15.4 C 147.16 -15.09 147.88 -14.83 147.88 -13.4 L 147.88 -3.37 L 139.96 -15.4 L 136.31 -15.4 C 137.04 -15.09 137.76 -14.83 137.76 -13.4 L 137.76 -2 C 137.76 -0.57 137.04 -0.31 136.31 0 L 139.66 0 C 138.93 -0.31 138.2 -0.57 138.2 -2 L 138.2 -14.06 Z M 172.74 0 L 183.28 0 L 184.54 -2.51 C 183.59 -1.69 182.58 -0.44 180.29 -0.44 L 176.4 -0.44 L 176.4 -13.4 C 176.4 -14.83 177.12 -15.09 177.85 -15.4 L 172.74 -15.4 C 173.47 -15.09 174.2 -14.83 174.2 -13.4 L 174.2 -2 C 174.2 -0.57 173.47 -0.31 172.74 0 Z M 200.99 0.2 C 205.17 0.2 208.32 -3.01 208.32 -7.72 C 208.32 -12.25 205.37 -15.62 200.99 -15.62 C 196.79 -15.62 193.64 -12.43 193.64 -7.72 C 193.64 -3.17 196.59 0.2 200.99 0.2 Z M 200.99 -0.24 C 197.98 -0.24 195.95 -3.41 195.95 -7.72 C 195.95 -12.17 198.11 -15.18 200.99 -15.18 C 203.98 -15.18 206.01 -12.01 206.01 -7.72 C 206.01 -3.28 203.85 -0.24 200.99 -0.24 Z M 218.72 -13.53 L 224.05 0 L 224.6 0 L 229.13 -13.51 C 229.59 -14.85 230.49 -15.09 231.22 -15.4 L 227.88 -15.4 C 228.6 -15.09 229.15 -14.85 228.69 -13.51 L 225.17 -3.01 L 221.01 -13.6 C 220.53 -14.85 219.69 -15.4 218.37 -15.4 L 216.55 -15.4 C 217.27 -15.09 218.22 -14.87 218.72 -13.53 Z M 240.99 0 L 251.53 0 L 252.78 -2.51 C 251.83 -1.69 250.82 -0.44 248.53 -0.44 L 244.64 -0.44 L 244.64 -7.48 L 247.54 -7.48 C 248.97 -7.48 249.24 -6.75 249.55 -6.03 L 249.55 -9.37 C 249.24 -8.65 248.97 -7.92 247.54 -7.92 L 244.64 -7.92 L 244.64 -14.96 L 248.75 -14.96 C 250.89 -14.96 251.28 -13.88 251.75 -12.78 L 251.75 -15.4 L 240.99 -15.4 C 241.71 -15.09 242.44 -14.83 242.44 -13.4 L 242.44 -2 C 242.44 -0.57 241.71 -0.31 240.99 0 Z" stroke-linecap="round" />
</g>
</g>
</g>
<g transform="matrix(1.9211538461538462 0 0 1.9211538461538462 276.97074562324383 549.420483961501)" id="tagline-979fc98d-13ec-43c6-9b67-b1a637391efc-logo"  >
<g style=""  paint-order="stroke"   >
		<g transform="matrix(1 0 0 1 0 0)" id="tagline-979fc98d-13ec-43c6-9b67-b1a637391efc-logo-path-0"  >
<filter id="SVGID_114521" y="-21.003561041210595%" height="142.00712208242118%" x="-22.982667044564657%" width="145.96533408912933%" >
	<feGaussianBlur in="SourceAlpha" stdDeviation="0"></feGaussianBlur>
	<feOffset dx="2.1475202720865543" dy="0.7158400906955181" result="oBlur" ></feOffset>
	<feFlood flood-color="rgb(179,135,48)" flood-opacity="1"/>
	<feComposite in2="oBlur" operator="in" />
	<feMerge>
		<feMergeNode></feMergeNode>
		<feMergeNode in="SourceGraphic"></feMergeNode>
	</feMerge>
</filter>
<path style="stroke: rgb(128,198,244); stroke-width: 1.4316801813910363; stroke-dasharray: none; stroke-linecap: butt; stroke-dashoffset: 0; stroke-linejoin: miter; stroke-miterlimit: 4; fill: rgb(255,255,255); fill-rule: nonzero; opacity: 1;filter: url(#SVGID_114521);"  paint-order="stroke"  transform=" translate(-37.26, 15.985)" d="M 53.65 8.66 L 53.72 -47.95 C 53.72 -50.02 55.13 -50.91 56.39 -50.91 C 56.54 -50.91 56.76 -50.99 56.76 -51.28 C 56.76 -51.58 56.54 -51.65 56.39 -51.65 L 43.36 -51.65 L 29.08 -14.58 L 15.32 -51.65 L 1.63 -51.65 C 1.48 -51.65 1.26 -51.58 1.26 -51.28 C 1.26 -50.99 1.48 -50.91 1.63 -50.91 L 1.63 -50.91 C 2.89 -50.91 4.29 -50.02 4.29 -47.95 L 4.29 -3.7 C 4.29 -1.63 2.89 -0.74 1.63 -0.74 C 1.48 -0.74 1.26 -0.67 1.26 -0.37 C 1.26 -0.07 1.48 0 1.63 0 L 9.92 0 C 10.06 0 10.29 -0.07 10.29 -0.37 C 10.29 -0.67 10.06 -0.74 9.92 -0.74 C 8.66 -0.74 7.25 -1.63 7.25 -3.7 L 7.25 -43.66 L 23.46 0 L 27.16 0 L 43.36 -42.03 L 43.36 2.22 C 43.36 15.84 51.87 19.68 59.2 19.68 C 68.52 19.68 73.26 14.8 73.26 8.58 C 73.26 4.66 70.6 2 67.19 2 C 63.79 2 61.05 4.66 61.05 8.07 C 61.05 9.62 61.57 10.88 62.53 12.28 C 63.64 13.99 63.79 16.72 59.94 16.72 C 57.42 16.72 53.65 14.58 53.65 8.66 Z" stroke-linecap="round" />
</g>
</g>
</g>
</svg>